<?xml version="1.0" encoding="UTF-8"?>
<svg xmlns="http://www.w3.org/2000/svg" xmlns:xlink="http://www.w3.org/1999/xlink" width="29px" height="24px" viewBox="0 0 29 24" version="1.1">
  <!-- Generator: Sketch 63.1 (92452) - https://sketch.com -->
  <title>mastercard_logo</title>
  <desc>Created with Sketch.</desc>
  <g id="mastercard_logo" stroke="none" stroke-width="1" fill="none" fill-rule="evenodd">
    <path d="M15,3.70166746 C14.8964446,3.78222629 14.7951209,3.86521293 14.6960291,3.95062737 C13.0029872,5.40730768 11.9312778,7.55193838 11.9312778,9.94552898 C11.9312778,12.3391196 13.0029872,14.4835296 14.6960291,15.9404306 C14.7951209,16.025845 14.8964446,16.108611 15,16.1891698 C15.1035554,16.108611 15.2048791,16.025845 15.3039709,15.9404306 C16.997236,14.4835296 18.0687222,12.3391196 18.0687222,9.94552898 C18.0687222,7.55193838 16.997236,5.40730768 15.3039709,3.95062737 C15.2048791,3.86521293 15.1035554,3.78222629 15,3.70166746 L15,3.70166746 Z M19.9655273,2 C18.3206922,2 16.7914642,2.48909145 15.5177771,3.32800689 C15.5829456,3.38075637 15.6490068,3.43262302 15.7119436,3.48691747 C17.6049546,5.1155302 18.6902779,7.46961387 18.6902779,9.94552898 C18.6902779,12.4214441 17.6049546,14.7755278 15.7121667,16.4039198 C15.6494532,16.4579935 15.5829456,16.5103016 15.5177771,16.5630511 C16.7912411,17.4017458 18.3206922,17.891058 19.9655273,17.891058 C24.402788,17.891058 28,14.3336681 28,9.94552898 C28,5.55716918 24.402788,2 19.9655273,2 Z M14.2880564,16.4039198 C14.35077,16.4579935 14.4170544,16.5100809 14.4822229,16.5630511 C13.2087589,17.4019665 11.679531,17.891058 10.0344727,17.891058 C5.59698879,17.891058 2,14.3336681 2,9.94552898 C2,5.55738989 5.59698879,2 10.0344727,2 C11.6793078,2 13.2087589,2.48909145 14.4822229,3.32800689 C14.4170544,3.38075637 14.3512163,3.43262302 14.2880564,3.48691747 C12.3952686,5.1155302 11.3097221,7.46961387 11.3097221,9.94552898 C11.3097221,12.4216648 12.3952686,14.7755278 14.2880564,16.4039198 Z M27.7482532,14.8691084 L27.7482532,14.5605571 L27.6670157,14.5605571 L27.5732802,14.7728793 L27.4795447,14.5605571 L27.3980841,14.5605571 L27.3980841,14.8691084 L27.4556645,14.8691084 L27.4556645,14.636481 L27.5433741,14.8368849 L27.6029631,14.8368849 L27.690896,14.6360396 L27.690896,14.8691084 L27.7482532,14.8691084 Z M27.2327079,14.8691084 L27.2327079,14.6133066 L27.3369328,14.6133066 L27.3369328,14.5612192 L27.0713489,14.5612192 L27.0713489,14.6133066 L27.1755738,14.6133066 L27.1755738,14.8691084 L27.2327079,14.8691084 Z M27.4837851,21.7287485 L27.4837851,21.7806151 L27.531992,21.7806151 C27.543151,21.7806151 27.5520781,21.778408 27.5585504,21.7742146 C27.5652458,21.7700211 27.5683703,21.7633998 27.5683703,21.7543507 C27.5683703,21.7457431 27.5652458,21.7393425 27.5585504,21.735149 C27.5520781,21.7309556 27.543151,21.7287485 27.531992,21.7287485 L27.4837851,21.7287485 Z M27.5326615,21.6923315 C27.5578808,21.6923315 27.5772975,21.6978492 27.5911346,21.7088846 C27.6047486,21.7201408 27.6116672,21.735149 27.6116672,21.7543507 C27.6116672,21.7704625 27.6060877,21.7839258 27.5951518,21.7942991 C27.584216,21.8046724 27.5688166,21.811073 27.5487305,21.8135008 L27.6132294,21.8869969 L27.5627908,21.8869969 L27.5029786,21.8139422 L27.4837851,21.8139422 L27.4837851,21.8869969 L27.4416041,21.8869969 L27.4416041,21.6923315 L27.5326615,21.6923315 Z M27.5201634,21.9538718 C27.5429278,21.9538718 27.564353,21.9494576 27.5839929,21.9410707 C27.6038559,21.932463 27.6210407,21.9207654 27.6359938,21.9059779 C27.6509468,21.8914111 27.6625521,21.8739751 27.671033,21.8541113 C27.6795138,21.8342474 27.6837542,21.8130594 27.6837542,21.7903263 C27.6837542,21.767814 27.6795138,21.7466259 27.671033,21.7267621 C27.6625521,21.7068983 27.6509468,21.6894622 27.6359938,21.6746747 C27.6210407,21.6601079 27.6038559,21.6484103 27.5839929,21.6400234 C27.564353,21.6316364 27.5429278,21.627443 27.5201634,21.627443 C27.4969527,21.627443 27.4750811,21.6316364 27.4549949,21.6400234 C27.4346856,21.6484103 27.4170544,21.6601079 27.4021013,21.6746747 C27.3873715,21.6894622 27.3755429,21.7068983 27.3670621,21.7267621 C27.3585813,21.7466259 27.3543408,21.767814 27.3543408,21.7903263 C27.3543408,21.8130594 27.3585813,21.8342474 27.3670621,21.8541113 C27.3755429,21.8739751 27.3873715,21.8914111 27.4021013,21.9059779 C27.4170544,21.9207654 27.4346856,21.932463 27.4549949,21.9410707 C27.4750811,21.9494576 27.4969527,21.9538718 27.5201634,21.9538718 Z M27.5201634,21.5806526 C27.5498463,21.5806526 27.577967,21.5861704 27.604079,21.5972058 C27.6301911,21.6080206 27.6531786,21.6230288 27.6725952,21.6422305 C27.6922351,21.6612115 27.7076345,21.6835031 27.7190166,21.7088846 C27.7301756,21.7344869 27.7357551,21.7616341 27.7357551,21.7903263 C27.7357551,21.8192392 27.7301756,21.8461657 27.7190166,21.8715473 C27.7076345,21.8969288 27.6922351,21.9192205 27.6725952,21.9382014 C27.6531786,21.9571824 27.6301911,21.9721906 27.604079,21.9834468 C27.577967,21.9944823 27.5498463,22 27.5201634,22 C27.4895878,22 27.461244,21.9944823 27.4346856,21.9834468 C27.4081272,21.9721906 27.3851397,21.9571824 27.365723,21.9382014 C27.3463064,21.9192205 27.3311301,21.8969288 27.319748,21.8715473 C27.308589,21.8461657 27.3030095,21.8192392 27.3030095,21.7903263 C27.3030095,21.7616341 27.308589,21.7344869 27.319748,21.7088846 C27.3311301,21.6835031 27.3463064,21.6612115 27.365723,21.6422305 C27.3851397,21.6230288 27.4081272,21.6080206 27.4346856,21.5972058 C27.461244,21.5861704 27.4895878,21.5806526 27.5201634,21.5806526 Z M7.61810503,20.8315658 C7.61810503,20.4607745 7.86360281,20.1564166 8.26510326,20.1564166 C8.64897251,20.1564166 8.90786108,20.4475319 8.90786108,20.8315658 C8.90786108,21.2155997 8.64897251,21.5069358 8.26510326,21.5069358 C7.86360281,21.5069358 7.61810503,21.2023572 7.61810503,20.8315658 Z M9.34529348,20.8315658 L9.34529348,19.7767968 L8.8810795,19.7767968 L8.8810795,20.0328194 C8.73378084,19.8430096 8.51060104,19.7238267 8.20707652,19.7238267 C7.60917784,19.7238267 7.14050027,20.1873158 7.14050027,20.8315658 C7.14050027,21.4760365 7.60917784,21.9395257 8.20707652,21.9395257 C8.51060104,21.9395257 8.73378084,21.8203428 8.8810795,21.6305329 L8.8810795,21.8865555 L9.34529348,21.8865555 L9.34529348,20.8315658 Z M25.0192106,20.8315658 C25.0192106,20.4607745 25.2647084,20.1564166 25.666432,20.1564166 C26.0500781,20.1564166 26.3089667,20.4475319 26.3089667,20.8315658 C26.3089667,21.2155997 26.0500781,21.5069358 25.666432,21.5069358 C25.2647084,21.5069358 25.0192106,21.2023572 25.0192106,20.8315658 Z M26.7463991,20.8315658 L26.7463991,18.9292738 L26.2821851,18.9292738 L26.2821851,20.0328194 C26.1348864,19.8430096 25.9117066,19.7238267 25.6084053,19.7238267 C25.0102834,19.7238267 24.5416059,20.1873158 24.5416059,20.8315658 C24.5416059,21.4760365 25.0102834,21.9395257 25.6084053,21.9395257 C25.9117066,21.9395257 26.1348864,21.8203428 26.2821851,21.6305329 L26.2821851,21.8865555 L26.7463991,21.8865555 L26.7463991,20.8315658 Z M15.1024395,20.1343457 C15.4015005,20.1343457 15.5934351,20.3195206 15.6425346,20.6461701 L14.535786,20.6461701 C14.5846624,20.3415915 14.7721334,20.1343457 15.1024395,20.1343457 Z M15.1113667,19.7238267 C14.4864633,19.7238267 14.0492541,20.1740733 14.0492541,20.8315658 C14.0492541,21.5025216 14.5043177,21.9395257 15.1426119,21.9395257 C15.4639908,21.9395257 15.7585881,21.8598497 16.0174767,21.6437755 L15.7898333,21.3038834 C15.6112895,21.4451372 15.3836461,21.5245925 15.1693935,21.5245925 C14.8703325,21.5245925 14.5980532,21.3877528 14.5310992,21.0081331 L16.1156758,21.0081331 C16.1201394,20.9507488 16.1243798,20.8933644 16.1243798,20.8315658 C16.1201394,20.1740733 15.7094886,19.7238267 15.1113667,19.7238267 Z M20.7125101,20.8315658 C20.7125101,20.4607745 20.9577847,20.1564166 21.3595083,20.1564166 C21.7433776,20.1564166 22.0022661,20.4475319 22.0022661,20.8315658 C22.0022661,21.2155997 21.7433776,21.5069358 21.3595083,21.5069358 C20.9577847,21.5069358 20.7125101,21.2023572 20.7125101,20.8315658 Z M22.4396985,20.8315658 L22.4396985,19.7767968 L21.9754846,19.7767968 L21.9754846,20.0328194 C21.8281859,19.8430096 21.6050061,19.7238267 21.3014816,19.7238267 C20.7035829,19.7238267 20.2349053,20.1873158 20.2349053,20.8315658 C20.2349053,21.4760365 20.7035829,21.9395257 21.3014816,21.9395257 C21.6050061,21.9395257 21.8281859,21.8203428 21.9754846,21.6305329 L21.9754846,21.8865555 L22.4396985,21.8865555 L22.4396985,20.8315658 Z M18.0926024,20.8315658 C18.0926024,21.4716223 18.5434256,21.9395257 19.2308194,21.9395257 C19.5521983,21.9395257 19.7662277,21.8688988 19.9983347,21.6879173 L19.7751549,21.3171259 C19.6010747,21.440723 19.4180673,21.5069358 19.2174286,21.5069358 C18.8469502,21.5025216 18.5746708,21.2376706 18.5746708,20.8315658 C18.5746708,20.4256817 18.8469502,20.1608307 19.2174286,20.1564166 C19.4180673,20.1564166 19.6010747,20.2224086 19.7751549,20.3462264 L19.9983347,19.9754351 C19.7662277,19.7944536 19.5521983,19.7238267 19.2308194,19.7238267 C18.5434256,19.7238267 18.0926024,20.19173 18.0926024,20.8315658 Z M24.0731515,19.7238267 C23.8053357,19.7238267 23.6312555,19.8474238 23.5107384,20.0328194 L23.5107384,19.7767968 L23.050988,19.7767968 L23.050988,21.8865555 L23.515202,21.8865555 L23.515202,20.7035545 C23.515202,20.3550548 23.6669642,20.1608307 23.9704888,20.1608307 C24.0642243,20.1608307 24.1624234,20.1740733 24.2606225,20.2138009 L24.4034576,19.781211 C24.3005717,19.7414834 24.1666638,19.7238267 24.0731515,19.7238267 Z M11.6391354,19.9445358 C11.4159556,19.7988678 11.1079675,19.7238267 10.7689574,19.7238267 C10.2288623,19.7238267 9.88070181,19.9798493 9.88070181,20.3989759 C9.88070181,20.7432822 10.1395904,20.9551629 10.6171951,21.0213757 L10.8359113,21.052275 C11.0901131,21.0875884 11.2108534,21.1538012 11.2108534,21.2729841 C11.2108534,21.4363089 11.0410136,21.5290067 10.7243214,21.5290067 C10.4029425,21.5290067 10.1708356,21.4274805 10.0146097,21.3082976 L9.79589349,21.6658464 C10.0503185,21.8510213 10.3716974,21.9395257 10.7198579,21.9395257 C11.3356109,21.9395257 11.6926986,21.6526038 11.6926986,21.2509132 C11.6926986,20.8801218 11.411492,20.6858978 10.9475012,20.619685 L10.728785,20.5887858 C10.5279232,20.5623007 10.3672338,20.5227937 10.3672338,20.3815399 C10.3672338,20.2270435 10.518996,20.1343457 10.773421,20.1343457 C11.0457004,20.1343457 11.3088293,20.2358719 11.4382736,20.3153271 L11.6391354,19.9445358 Z M17.6241481,19.7238267 C17.3563323,19.7238267 17.1822521,19.8474238 17.061735,20.0328194 L17.061735,19.7767968 L16.6019846,19.7767968 L16.6019846,21.8865555 L17.0661986,21.8865555 L17.0661986,20.7035545 C17.0661986,20.3550548 17.2179608,20.1608307 17.5214853,20.1608307 C17.6152209,20.1608307 17.71342,20.1740733 17.8113959,20.2138009 L17.954231,19.781211 C17.8515683,19.7414834 17.7176604,19.7238267 17.6241481,19.7238267 Z M13.6653848,19.7767968 L12.9065735,19.7767968 L12.9065735,19.1367403 L12.4381191,19.1367403 L12.4381191,19.7767968 L12.0051503,19.7767968 L12.0051503,20.1961442 L12.4381191,20.1961442 L12.4381191,21.1582153 C12.4381191,21.6481896 12.6300537,21.9395257 13.1788529,21.9395257 C13.3797147,21.9395257 13.6118217,21.8775064 13.7591203,21.7762009 L13.6252124,21.3833387 C13.486841,21.462794 13.3350787,21.5025216 13.2145616,21.5025216 C12.9824546,21.5025216 12.9065735,21.3612678 12.9065735,21.149387 L12.9065735,20.1961442 L13.6653848,20.1961442 L13.6653848,19.7767968 Z M6.72984944,21.8865555 L6.72984944,20.5623007 C6.72984944,20.0637187 6.40847053,19.7282408 5.89091658,19.7238267 C5.61863723,19.7194125 5.33743069,19.8032819 5.14103246,20.0990322 C4.9937338,19.8650805 4.76162681,19.7238267 4.43600749,19.7238267 C4.20836409,19.7238267 3.9851843,19.7900394 3.81110405,20.0372336 L3.81110405,19.7767968 L3.34689008,19.7767968 L3.34689008,21.8865555 L3.81556765,21.8865555 L3.81556765,20.7167971 C3.81556765,20.3504199 4.02089306,20.1564166 4.33780837,20.1564166 C4.64557331,20.1564166 4.80179917,20.3550548 4.80179917,20.7123829 L4.80179917,21.8865555 L5.27047675,21.8865555 L5.27047675,20.7167971 C5.27047675,20.3504199 5.48472935,20.1564166 5.79271747,20.1564166 C6.10963278,20.1564166 6.26117187,20.3550548 6.26117187,20.7123829 L6.26117187,21.8865555 L6.72984944,21.8865555 L6.72984944,21.8865555 Z" id="Fill-1" fill="#FFFFFF"></path>
  </g>
</svg>
