<?xml version="1.0" encoding="UTF-8"?>
<svg xmlns="http://www.w3.org/2000/svg" xmlns:xlink="http://www.w3.org/1999/xlink" width="24px" height="24px" viewBox="0 0 24 24" version="1.1">
  <!-- Generator: Sketch 61.2 (89653) - https://sketch.com -->
  <title>Icon/ Paypal</title>
  <desc>Created with Sketch.</desc>
  <g id="Icon/-Paypal" stroke="none" stroke-width="1" fill="none" fill-rule="evenodd">
    <g id="paypal-line">
      <polygon id="Path" points="0 0 24 0 24 24 0 24"></polygon>
      <path d="M8.495,20.667 L10.046,20.667 L10.584,17.291 C10.7999031,15.9284825 11.9744827,14.9252134 13.354,14.925 L13.854,14.925 C16.531,14.925 17.914,13.942 18.404,11.422 C18.612,10.356 18.521,9.692 18.233,9.32 C17.026,12.374 14.443,13.48 11.271,13.48 L10.387,13.48 C10.003,13.48 9.593,13.689 9.535,14.06 L8.495,20.667 L8.495,20.667 Z M3.551,20.373 C3.38988682,20.3729277 3.2368766,20.3023433 3.13224745,20.1798271 C3.02761829,20.057311 2.98185346,19.8951387 3.007,19.736 L5.68,2.776 C5.7509067,2.32856553 6.13698242,1.99934052 6.59,1.99999901 L13.014,1.99999901 C15.226,1.99999901 16.956,2.467 17.913,3.558 C18.783,4.548 19.036,5.642 18.784,7.25 C19.144,7.441 19.452,7.675 19.7,7.956 C20.518,8.889 20.678,10.216 20.368,11.806 C19.628,15.611 17.092,16.926 13.854,16.926 L13.354,16.926 C12.9584617,16.9265297 12.62191,17.2143365 12.56,17.605 L11.858,21.988 C11.7964805,22.378882 11.4596935,22.667 11.064,22.667 L6.72,22.667 C6.57882534,22.667 6.44473551,22.6051542 6.35300288,22.4978443 C6.26127024,22.3905344 6.22107846,22.2484623 6.243,22.109 L6.517,20.373 L3.55,20.373 L3.551,20.373 Z M10.387,11.479 L11.271,11.479 C14.461,11.479 16.166,10.267 16.754,7.25 C16.774,7.149 16.791,7.047 16.807,6.941 C16.973,5.881 16.857,5.388 16.409,4.878 C15.944,4.348 14.806,4 13.013,4 L7.513,4 L5.246,18.373 L6.807,18.373 L7.537,13.745 L7.544,13.746 C7.8464599,12.419441 9.02639699,11.4785626 10.387,11.479 Z" id="Shape" fill="#FFFFFF" fill-rule="nonzero"></path>
    </g>
  </g>
</svg>
