<svg xmlns="http://www.w3.org/2000/svg" height="1000" width="1000"><path d="M896.3 752.8c-6.1-6-6.9-16.6-2.4-23.9 22.4-36.2 35.5-78.8 35.5-124.4 0-131.2-106.8-238-238-238s-237.9 106.8-237.9 238 106.7 237.9 237.9 237.9c49.3 0 95-15.2 133-41 7.1-4.8 17.4-4.1 23.4 1.9l81.3 81.3c.6.6 1.2 1.1 1.8 1.6 1 .8 6.8 6.3 12.8 12.3l2.6 2.6c6.1 6.1 15.9 6.1 21.9 0l27.3-27.2c6-6.1 6-15.9 0-21.9l-99.2-99.2zm-60.9-37.4c-7.9 10.1-16.7 19.5-26.5 27.8-31.7 26.9-72.7 43.2-117.5 43.2-100.3 0-181.9-81.6-181.9-181.9s81.6-182 181.9-182c100.4 0 182 81.6 182 182 0 41.7-14.3 80.1-38 110.9zm-544-45.8V140.9c0-8.5 6.2-12.3 13.8-8.4l222 112.7c7.7 3.9 13.9 14 13.9 22.5v65.1c0 8.6 5.9 12.1 13.5 8.7s14.1-12.8 14.1-21.3V266c0-8.5 6.2-18.6 13.9-22.4l208.1-104.2c7.7-3.8 13.9 0 13.9 8.5v181.5c0 8.5 6.2 18.4 13.7 22.6l.9.4c7.4 4.2 13.2 1.1 13.2-7.5v-239c0-8.5-6.2-12.4-13.8-8.5l-249.9 126c-7.6 3.9-20 3.9-27.6 0l-249.7-126c-7.7-3.9-20.1-3.9-27.7 0l-249.9 126C6.2 227.3 0 237.3 0 245.9v584.9c0 8.5 6.2 12.4 13.8 8.5l249.9-126.2c7.6-3.8 20-3.8 27.7 0l144.4 73c7.6 3.9 9.4 1.7 4.3-5.2-4.1-5.5-8-11.3-11.7-17.1-4.5-7.3-14-16.5-21.7-20.4l-101.5-51.3c-7.6-3.8-13.8-13.9-13.8-22.5zm-41.7 22.5l-208 105.1c-7.7 3.9-13.8.1-13.8-8.5V259.9c0-8.6 6.1-18.6 13.8-22.5l208-105c7.6-3.8 13.8 0 13.8 8.5v528.7c0 8.6-6.2 18.7-13.8 22.5z"/></svg>