<svg xmlns="http://www.w3.org/2000/svg" height="1000" width="1000"><path d="M906.4 601.4l-13.2-13.2c-10.8-10.9-28.5-10.9-39.4 0L799.1 643H609c-12.2 0-22.3 10-22.3 22.3v96.6H471.4V454.2c18.7-22.6 46.8-36.2 77.2-36.2 40.5 0 77.2 24.2 92.7 61.7A100.26 100.26 0 0 1 734 418c40.5 0 77.2 24.2 92.7 61.7 0-199.4-157.7-361.7-355.3-369.9V78a15.45 15.45 0 0 0-15.5-15.5c-8.6 0-15.3 6.9-15.3 15.5v31.8C243.1 117.9 85.2 280.2 85.2 479.6c15.7-37.5 52.2-61.7 92.7-61.7s77.2 24.2 92.7 61.7c15.7-37.5 52.2-61.7 92.7-61.7 30.4 0 58.5 13.6 77.2 36.2v307.7h-138c-15.3 0-27.8 12.5-27.8 27.8v18.6c0 15.3 12.5 27.8 27.8 27.8h73.1L320 900.4c-8.1 9.3-7 23.4 2.3 31.5 4.2 3.6 9.4 5.4 14.5 5.4 6.3 0 12.5-2.6 16.9-7.7l55.1-63.8h257.9l58.2 58.2c8.7 8.7 22.8 8.7 31.5 0s8.7-22.8 0-31.6l-56.4-56h67c15.3 0 27.8-12.4 27.8-27.8V790c0-10.2-5.5-19-13.6-23.8L906.4 641c10.9-11.1 10.9-28.7 0-39.6zm-435-460.2s117.7 44.2 169.8 283.9c-24.1-24.1-57-38.1-92.7-38.1-28.5 0-55.2 9.4-77.2 25.5V141.2zM270.6 425c-24.1-24-57.1-38-92.7-38-18.1 0-35.6 3.7-51.7 10.4 35.6-142.8 162.3-249.3 314.3-256.2C306.4 192.6 270.6 425 270.6 425zm411.2 336.9h-50.5v-74.3h123.1l-72.6 74.3z"/></svg>